# xmcd CD database file
#
# Track frame offsets:
#	150
#	24165
#	41520
#	64297
#	84290
#	103677
#	125490
#	141907
#	164002
#	184710
#	202775
#	222125
#
# Disc length: 3228 seconds
#
# Revision: 0
# Processed by: cddbd v1.5.2PL0 Copyright (c) Steve Scherf et al.
# Submitted via: CDex 1.70beta1
#
DISCID=a10c9a0c
DTITLE=仲宗根かほる(vo) - fragrance
DYEAR=2000
DGENRE=Jazz
TTITLE0=DADDY
TTITLE1=I DIDN'T KNOW WHAT TIME IT WAS
TTITLE2=FEVER
TTITLE3=LOVE IS LIKE THAT
TTITLE4=THE DIPSY DOODLE
TTITLE5=THE RIVER OF NO RETURN
TTITLE6=MY HEART BELONGS TO DADDY
TTITLE7=YOU BELONG TO ME
TTITLE8=ENGLISHMAN IN NEW YORK
TTITLE9=BABY ALL I WANT IS YOU(LOIE)
TTITLE10=IT'S TOO LATE
TTITLE11=SO PURE,SO BLUE(PAVANNE)
EXTD=YEAR: 2000
EXTT0=
EXTT1=
EXTT2=
EXTT3=
EXTT4=
EXTT5=
EXTT6=
EXTT7=
EXTT8=
EXTT9=
EXTT10=
EXTT11=
PLAYORDER=
